<?xml version="1.0" standalone="no"?>
<!DOCTYPE svg PUBLIC "-//W3C//DTD SVG 1.1//EN" "http://www.w3.org/Graphics/SVG/1.1/DTD/svg11.dtd">
<svg width="100%" height="100%" viewBox="0 0 72 47" version="1.1" xmlns="http://www.w3.org/2000/svg" xmlns:xlink="http://www.w3.org/1999/xlink" xml:space="preserve" style="fill-rule:evenodd;clip-rule:evenodd;stroke-linecap:round;stroke-linejoin:round;stroke-miterlimit:1.41421;">
    <g transform="matrix(0.375,0,0,0.375,-0,-0)">
        <g transform="matrix(0.470877,0,0,0.470877,31.1595,-49.2555)">
            <ellipse cx="135.578" cy="353.467" rx="60.779" ry="12.167" style="fill:rgb(118,140,164);fill-opacity:0.228565;"/>
        </g>
        <g transform="matrix(0.764936,0,0,0.620146,-4.11687,-94.4094)">
            <path d="M129.575,298.323L150.221,339.615L108.929,339.615L129.575,298.323Z" style="fill:rgb(118,140,164);stroke-width:11.49px;stroke:rgb(118,140,164);"/>
        </g>
        <g transform="matrix(0.558825,0.0395188,-0.0395188,0.558825,-6.1962,-44.0544)">
            <path d="M38.777,215.92L353.937,215.92" style="fill:none;stroke-width:24.99px;stroke:rgb(118,140,164);"/>
        </g>
        <g transform="matrix(0.217025,0.0153475,-0.0153475,0.217025,-1.39303,28.3386)">
            <path d="M113.961,87.187L224.547,87.187L239.476,178.143L99.02,178.143L113.961,87.187Z" style="fill:rgb(255,213,87);stroke-width:13.79px;stroke:rgb(255,213,87);"/>
        </g>
        <g transform="matrix(0.217025,0.0153475,-0.0153475,0.217025,7.49058,-14.3767)">
            <circle cx="142.368" cy="255.196" r="25.799" style="fill:none;stroke-width:17.87px;stroke:rgb(255,213,87);"/>
        </g>
        <g transform="matrix(0.367321,0.0259761,-0.0259761,0.367321,90.4046,7.96618)">
            <path d="M113.961,87.187L224.547,87.187L239.476,178.143L99.02,178.143L113.961,87.187Z" style="fill:rgb(204,204,204);stroke-width:8.15px;stroke:rgb(204,204,204);"/>
        </g>
        <g transform="matrix(0.367321,0.0259761,-0.0259761,0.367321,105.44,-64.3308)">
            <circle cx="142.368" cy="255.196" r="25.799" style="fill:none;stroke-width:19.01px;stroke:rgb(204,204,204);"/>
        </g>
    </g>
</svg>
